<svg xmlns="http://www.w3.org/2000/svg" width="775.919" class="svg-icon" height="675.205" viewBox="0 0 775.919 675.205">
  <g id="Group_3788" data-name="Group 3788" transform="translate(-1339.838 -554.211)">
    <path id="Path_2301" data-name="Path 2301" d="M1956.606,594.915v17.651h141.5v599.2H1357.489v-599.2h141.5V594.915h-159.15v634.5h775.919v-634.5Z" fill="#fff"/>
    <g id="Group_3785" data-name="Group 3785">
      <path id="Path_2302" data-name="Path 2302" d="M1389.636,737.9c0-2.148,1.262-3.579,3.155-3.579h38.491c25.869,0,40.069,12.887,46.692,36.154,3.789,13.241,5.05,28.993,5.05,85.545,0,56.2-1.261,72.307-5.05,85.549-6.623,23.266-20.823,36.153-46.692,36.153h-38.491c-1.893,0-3.155-1.431-3.155-3.578Zm18.3,222.281h21.454c17.982,0,27.762-7.874,32.813-24.7,3.154-11.094,4.416-25.77,4.416-79.464s-1.262-68.367-4.416-79.46c-5.051-16.824-14.831-24.7-32.813-24.7h-21.454q-1.892,0-1.892,2.148V958.034C1406.043,959.468,1406.674,960.181,1407.935,960.181Z" fill="#fff"/>
      <path id="Path_2303" data-name="Path 2303" d="M1522.767,737.9c0-2.148,1.261-3.579,3.154-3.579h10.1c1.892,0,3.154,1.431,3.154,3.579V974.144c0,2.147-1.262,3.578-3.154,3.578h-10.1c-1.893,0-3.154-1.431-3.154-3.578Z" fill="#fff"/>
      <path id="Path_2304" data-name="Path 2304" d="M1578.6,856.02c0-71.228.948-80.536,4.1-91.275,6.309-21.833,21.14-33.289,43.224-33.289,27.762,0,42.59,18.613,46.061,47.965.318,2.506-.317,3.937-2.209,4.654l-9.15,2.148c-2.206.717-3.468-.359-3.785-2.507-2.837-21.477-11.987-34.719-30.917-34.719-13.566,0-23.032,6.8-27.449,21.478-2.21,8.232-3.154,15.748-3.154,85.545s.944,77.316,3.154,85.549c4.417,14.317,14.2,21.477,27.763,21.477s23.346-7.16,27.766-21.477c2.206-8.233,3.154-15.748,3.154-71.228q0-2.151-1.893-2.148H1629.71c-1.892,0-3.154-1.434-3.154-3.582V854.589c0-2.148,1.262-3.578,3.154-3.578h40.384c1.892,0,3.154,1.43,3.154,3.578v9.663c0,63-.944,72.307-4.1,83.046-6.309,21.833-21.137,33.289-43.221,33.289S1589.01,969.131,1582.7,947.3C1579.546,936.559,1578.6,927.251,1578.6,856.02Z" fill="#fff"/>
      <path id="Path_2305" data-name="Path 2305" d="M1711.732,737.9c0-2.148,1.262-3.579,3.155-3.579h10.1c1.893,0,3.155,1.431,3.155,3.579V974.144c0,2.147-1.262,3.578-3.155,3.578h-10.1c-1.893,0-3.155-1.431-3.155-3.578Z" fill="#fff"/>
      <path id="Path_2306" data-name="Path 2306" d="M1801.325,977.722c-1.9,0-3.158-1.431-3.158-3.578V754.006q0-2.145-1.893-2.148h-37.86c-1.892,0-3.154-1.43-3.154-3.578V737.9c0-2.148,1.262-3.579,3.154-3.579h95.912c1.893,0,3.154,1.431,3.154,3.579v10.38c0,2.148-1.261,3.578-3.154,3.578h-37.86q-1.893,0-1.893,2.148V974.144c0,2.147-1.262,3.578-3.154,3.578Z" fill="#fff"/>
      <path id="Path_2307" data-name="Path 2307" d="M1901.015,737.9c.631-2.148,1.575-3.579,3.468-3.579h10.411c1.893,0,3.155,1.431,3.472,3.579l44.169,236.244c.317,2.147-.945,3.578-2.838,3.578h-10.1c-2.21,0-3.155-1.431-3.472-3.578L1935.4,915.8h-52.374L1872.3,974.144c-.317,2.147-1.261,3.578-3.154,3.578h-10.1a3.041,3.041,0,0,1-3.154-3.578Zm31.234,161.075-22.4-124.208h-.631l-23.032,124.208Z" fill="#fff"/>
      <path id="Path_2308" data-name="Path 2308" d="M1991.862,737.9c0-2.148,1.262-3.579,3.155-3.579h10.1c1.893,0,3.155,1.431,3.155,3.579V958.034c0,1.434.63,2.147,1.892,2.147h57.421c1.893,0,3.155,1.435,3.155,3.582v10.381c0,2.147-1.262,3.578-3.155,3.578h-72.565c-1.893,0-3.155-1.431-3.155-3.578Z" fill="#fff"/>
    </g>
    <g id="Group_3786" data-name="Group 3786">
      <path id="Path_2309" data-name="Path 2309" d="M1507.536,1052.27a1.244,1.244,0,0,1,1.317-1.317h16.7a1.245,1.245,0,0,1,1.317,1.317v70.083a.7.7,0,0,0,.789.79H1567.1a1.239,1.239,0,0,1,1.313,1.313v14.6a1.241,1.241,0,0,1-1.313,1.313h-58.248a1.243,1.243,0,0,1-1.317-1.313Z" fill="#fff"/>
      <path id="Path_2310" data-name="Path 2310" d="M1656.511,1052.27a1.7,1.7,0,0,1,1.71-1.317h16.565a1.7,1.7,0,0,1,1.71,1.317l30.244,86.783c.262.786,0,1.313-.92,1.313h-17.1a1.579,1.579,0,0,1-1.707-1.313l-5.129-15.648h-31.293l-5,15.648a1.582,1.582,0,0,1-1.71,1.313h-17.223c-.921,0-1.183-.527-.921-1.313Zm20.116,54.7-10.122-31.292h-.4l-10.126,31.292Z" fill="#fff"/>
      <path id="Path_2311" data-name="Path 2311" d="M1769.718,1052.27a1.245,1.245,0,0,1,1.317-1.317h34.844c19.461,0,28.531,9.6,28.531,23.8,0,9.729-4.468,15.779-10.387,19.065v.262c5.919,2.237,11.966,9.6,11.966,20.25,0,17.62-11.7,26.035-31.031,26.035h-33.923a1.244,1.244,0,0,1-1.317-1.313Zm33.792,35.236c7.364,0,11.7-3.944,11.7-10.518s-4.34-10.387-11.7-10.387h-13.672a.7.7,0,0,0-.79.789v19.33a.7.7,0,0,0,.79.786Zm-13.672,37.212h14.724c7.891,0,12.1-4.206,12.1-11.176,0-6.837-4.206-11.177-12.1-11.177h-14.724a.7.7,0,0,0-.79.789v20.775A.7.7,0,0,0,1789.838,1124.718Z" fill="#fff"/>
      <path id="Path_2312" data-name="Path 2312" d="M1898.181,1129.583a1.615,1.615,0,0,1-.134-2.234l9.994-11.439a1.314,1.314,0,0,1,1.972-.131c5.915,4.733,13.938,9.2,23.4,9.2,9.336,0,14.6-4.341,14.6-10.653,0-5.257-3.158-8.546-13.807-9.994l-4.733-.655c-18.144-2.5-28.27-11.046-28.27-26.825,0-16.437,12.36-27.349,31.689-27.349,11.832,0,22.878,3.551,30.373,9.336.789.524.92,1.052.262,1.972l-8.019,11.966a1.316,1.316,0,0,1-1.841.393c-6.837-4.471-13.414-6.836-20.775-6.836-7.891,0-11.966,4.075-11.966,9.729,0,5.129,3.682,8.415,13.938,9.863l4.734.655c18.406,2.5,28.138,10.914,28.138,27.087s-11.966,28.141-35.109,28.141C1918.69,1141.814,1905.148,1136.291,1898.181,1129.583Z" fill="#fff"/>
    </g>
    <g id="Group_3787" data-name="Group 3787">
      <path id="Path_2313" data-name="Path 2313" d="M1536.388,557.558a1.506,1.506,0,0,1,1.6-1.593h18.975a2.463,2.463,0,0,1,2.551,1.593l27.421,61.868h.641l26.945-61.868a2.461,2.461,0,0,1,2.551-1.593h18.655a1.508,1.508,0,0,1,1.6,1.593V662.795a1.508,1.508,0,0,1-1.6,1.593h-18.017a1.507,1.507,0,0,1-1.6-1.593V601.727h-.638l-20.088,45.761a3.053,3.053,0,0,1-3.03,2.072h-11a3.054,3.054,0,0,1-3.031-2.072l-20.088-45.761h-.641v61.068a1.5,1.5,0,0,1-1.593,1.593h-18.016a1.506,1.506,0,0,1-1.6-1.593Z" fill="#fff"/>
      <path id="Path_2314" data-name="Path 2314" d="M1658.028,557.558a1.506,1.506,0,0,1,1.6-1.593h20.25a1.506,1.506,0,0,1,1.593,1.593v84.987a.844.844,0,0,0,.958.955h47.83a1.508,1.508,0,0,1,1.6,1.6v17.7a1.507,1.507,0,0,1-1.6,1.593h-70.631a1.506,1.506,0,0,1-1.6-1.593Z" fill="#fff"/>
      <path id="Path_2315" data-name="Path 2315" d="M1740.449,651.315a1.966,1.966,0,0,1-.158-2.713l12.118-13.869a1.6,1.6,0,0,1,2.392-.162c7.174,5.74,16.9,11.163,28.38,11.163,11.321,0,17.7-5.265,17.7-12.918,0-6.378-3.827-10.363-16.741-12.114l-5.743-.8c-22-3.027-34.278-13.393-34.278-32.527,0-19.93,14.986-33.164,38.425-33.164,14.352,0,27.742,4.3,36.833,11.321.954.638,1.113,1.276.317,2.393l-9.726,14.51a1.6,1.6,0,0,1-2.234.476c-8.287-5.42-16.261-8.291-25.19-8.291-9.567,0-14.51,4.943-14.51,11.8,0,6.219,4.464,10.205,16.9,11.956l5.74.8c22.323,3.027,34.12,13.231,34.12,32.844s-14.51,34.123-42.573,34.123C1765.323,666.143,1748.9,659.444,1740.449,651.315Z" fill="#fff"/>
      <path id="Path_2316" data-name="Path 2316" d="M1840.567,557.558a1.507,1.507,0,0,1,1.6-1.593h69.518a1.506,1.506,0,0,1,1.593,1.593V574.62a1.507,1.507,0,0,1-1.593,1.6h-46.72a.845.845,0,0,0-.955.955V598.7a.845.845,0,0,0,.955.955h38.908a1.508,1.508,0,0,1,1.593,1.6v16.9a1.505,1.505,0,0,1-1.593,1.592h-38.908a.846.846,0,0,0-.955.959v22.481a.845.845,0,0,0,.955.955h46.72a1.506,1.506,0,0,1,1.593,1.6v17.061a1.506,1.506,0,0,1-1.593,1.593h-69.518a1.507,1.507,0,0,1-1.6-1.593Z" fill="#fff"/>
    </g>
  </g>
</svg>
